<?xml version="1.0" standalone="no"?>
<!DOCTYPE svg PUBLIC "-//W3C//DTD SVG 20010904//EN"
 "http://www.w3.org/TR/2001/REC-SVG-20010904/DTD/svg10.dtd">
<svg version="1.0" xmlns="http://www.w3.org/2000/svg"
 width="71.000000pt" height="57.000000pt" viewBox="0 0 71.000000 57.000000"
 preserveAspectRatio="xMidYMid meet">
<metadata>
Created by potrace 1.16, written by Peter Selinger 2001-2019
</metadata>
<g transform="translate(0.000000,57.000000) scale(0.100000,-0.100000)"
fill="#000000" stroke="none">
<path d="M0 284 l0 -284 355 0 355 0 0 79 c0 54 -4 81 -12 84 -10 4 -10 6 0 6
9 1 12 48 12 201 l0 200 -355 0 -355 -1 0 -285z m479 140 c39 -11 66 -29 104
-67 54 -54 93 -100 88 -105 -1 -1 1 -24 4 -50 12 -89 13 -84 -25 -88 -19 -2
-81 -9 -137 -15 -56 -6 -109 -9 -118 -5 -19 7 -17 62 3 59 6 -2 12 2 12 7 0
11 -2 12 -42 14 -15 1 -24 -2 -21 -7 3 -4 11 -6 19 -3 8 3 14 0 14 -5 0 -7 -9
-9 -22 -6 -12 4 -27 2 -34 -4 -9 -7 -14 -5 -18 8 -6 18 -55 47 -64 38 -3 -3 7
-15 22 -28 32 -28 26 -37 -21 -30 -24 4 -38 2 -43 -8 -11 -16 -17 -11 -21 16
-3 21 27 90 48 112 9 10 12 10 15 1 4 -10 11 -10 34 1 l29 14 -25 8 c-14 4
-18 7 -9 8 9 1 22 8 29 16 13 16 50 21 50 6 0 -5 -10 -12 -22 -16 -15 -4 -18
-8 -10 -12 7 -3 19 0 26 7 9 7 16 7 20 1 7 -11 46 -11 46 0 0 4 -9 11 -20 14
-11 3 -20 11 -20 16 0 11 33 12 46 1 5 -5 28 -15 52 -22 43 -13 52 -24 30 -34
-7 -3 -4 -4 7 -1 14 3 26 -5 43 -28 28 -42 28 -42 -5 -45 -16 -1 -29 -6 -31
-11 -2 -5 -18 -7 -36 -4 -21 3 -36 0 -44 -9 -9 -12 -7 -14 16 -14 15 0 39 -4
55 -7 17 -5 27 -3 27 4 0 6 7 8 17 5 9 -4 21 -1 26 6 6 10 7 9 4 -4 -7 -19 17
-31 44 -23 11 4 19 16 19 29 0 56 -50 149 -74 140 -8 -3 -17 -1 -21 5 -3 6 -1
11 6 11 7 0 5 8 -6 20 -10 12 -25 18 -32 15 -8 -2 -12 -1 -9 4 7 10 -30 28
-78 36 -29 6 -36 4 -36 -9 0 -9 -4 -16 -10 -16 -5 0 -10 7 -10 15 0 13 -8 15
-37 10 -53 -10 -129 -57 -125 -79 2 -12 -2 -16 -14 -14 -12 2 -26 -13 -46 -51
-28 -53 -37 -111 -18 -111 6 0 10 -4 10 -10 0 -5 -13 -10 -30 -10 -28 0 -30 2
-30 40 0 63 36 144 86 192 83 81 196 107 313 72z"/>
</g>
</svg>
