<?xml version="1.0" standalone="no"?>
<!DOCTYPE svg PUBLIC "-//W3C//DTD SVG 20010904//EN"
 "http://www.w3.org/TR/2001/REC-SVG-20010904/DTD/svg10.dtd">
<svg version="1.0" xmlns="http://www.w3.org/2000/svg"
 width="55.000000pt" height="24.000000pt" viewBox="0 0 55.000000 24.000000"
 preserveAspectRatio="xMidYMid meet">
<metadata>
Created by potrace 1.16, written by Peter Selinger 2001-2019
</metadata>
<g transform="translate(0.000000,24.000000) scale(0.100000,-0.100000)"
fill="#000000" stroke="none">
<path d="M4 227 c-3 -8 -4 -47 -2 -88 l3 -74 59 -3 c50 -3 65 -8 95 -35 l36
-31 3 31 c3 26 8 32 30 35 27 3 27 3 27 88 l0 85 -123 3 c-97 2 -124 0 -128
-11z m236 -77 l0 -70 -30 0 c-24 0 -30 -4 -30 -22 l0 -21 -23 21 c-18 17 -36
22 -80 22 l-57 0 0 70 0 70 110 0 110 0 0 -70z"/>
<path d="M284 227 c-3 -8 -4 -47 -2 -88 l3 -74 61 -3 c53 -2 65 -7 89 -32 36
-38 45 -38 45 -1 0 25 4 30 28 33 l27 3 0 85 0 85 -123 3 c-97 2 -124 0 -128
-11z m236 -77 l0 -70 -30 0 c-24 0 -30 -4 -30 -22 l0 -21 -23 21 c-18 17 -36
22 -80 22 l-57 0 0 70 0 70 110 0 110 0 0 -70z"/>
</g>
</svg>
